<svg fill="white" xmlns="http://www.w3.org/2000/svg" xmlns:xlink="http://www.w3.org/1999/xlink" version="1.1" x="0px" y="0px" viewBox="0 0 100 90" enable-background="new 0 0 100 100" xml:space="preserve"><path d="M89.561,93.397c0,0.831-0.673,1.505-1.505,1.505c-0.005,0-0.013,0-0.02,0H11.944c-0.453,0-0.881-0.204-1.166-0.554  c-0.286-0.351-0.399-0.811-0.309-1.255c0.332-1.617,2.388-13.765,7.865-17.643C23.803,81.195,35.66,85.1,50,85.1  c13.662,0,25.955-4.347,31.75-9.649c4.604,3.856,7.071,14.55,7.704,17.387C89.524,93.01,89.561,93.2,89.561,93.397z M20.92,74.346  c1.227-2.636,6.066-13.391,1.529-32.802c-1.84-7.873-1.549-19.131,4.789-27.12c4.908-6.188,12.481-9.326,22.508-9.326  c9.696,0,17.053,2.886,21.863,8.578c7.754,9.174,6.214,22.559,5.558,26.443c-3.52,20.829,0.69,31.128,1.831,33.886  c0.261,0.057-10.642,8.912-29.013,8.912C31.525,82.918,20.763,74.372,20.92,74.346z M33.008,31.64  c3.932-4.135,10.458-6.265,16.93-6.265c6.004,0,12.326,1.92,16.231,5.991c-3.069-6.905-9.223-12.629-16.521-12.629  C42.254,18.737,36.035,24.613,33.008,31.64z M31.009,40.855c-0.028,9.526,3.312,18.813,8.717,24.234  c3.005,3.014,6.787,4.607,10.273,4.607c3.561,0,6.715-1.65,9.785-4.769c5.397-5.485,8.656-14.705,8.504-24.061  c0-0.018-0.025-0.123-0.025-0.162c0-0.243-2.965-13.622-18.325-13.622c-15.83,0-18.905,13.348-18.905,13.622  C31.034,40.745,31.009,40.843,31.009,40.855z"/></svg>